<?xml version="1.0" encoding="iso-8859-1"?>
<!-- Generator: Adobe Illustrator 19.0.0, SVG Export Plug-In . SVG Version: 6.00 Build 0)  -->
<svg version="1.1" id="Layer_1" xmlns="http://www.w3.org/2000/svg" xmlns:xlink="http://www.w3.org/1999/xlink"  width="52px" height="58px" x="0px" y="0px"
	 viewBox="0 0 391.165 391.165" style="enable-background:new 0 0 391.165 391.165;" xml:space="preserve">
<g>
	<path style="fill:#C7E9F4;" d="M146.677,259.704H37.43c-5.523,0-10-4.477-10-10V141.461c0-5.523,4.477-10,10-10h124.248
		c5.523,0,10,4.477,10,10v93.244C171.677,248.511,160.485,259.704,146.677,259.704z"/>
	<path style="fill:#51B3DA;" d="M27.43,148.46c-11.046,0-20,8.954-20,20c0,11.046,8.954,20,20,20V148.46z"/>
	<path style="fill:#C7E9F4;" d="M244.487,259.704h109.248c5.523,0,10-4.477,10-10V141.461c0-5.523-4.477-10-10-10H229.487
		c-5.523,0-10,4.477-10,10v93.244C219.487,248.511,230.68,259.704,244.487,259.704z"/>
	<g>
		<path style="fill:#51B3DA;" d="M363.735,148.46c11.046,0,20,8.954,20,20c0,11.046-8.954,20-20,20V148.46z"/>
		<g>
			<path style="fill:#13829B;" d="M64.207,208.79l48.555-48.555c2.929-2.93,2.929-7.678,0-10.607c-2.929-2.928-7.678-2.928-10.606,0
				L53.6,198.183c-2.929,2.93-2.929,7.678,0,10.607C56.53,211.719,61.278,211.718,64.207,208.79z"/>
			<path style="fill:#13829B;" d="M134.9,154.595l-76.333,76.334c-2.929,2.93-2.929,7.678,0,10.607c2.93,2.929,7.677,2.928,10.606,0
				l76.333-76.334c2.929-2.93,2.929-7.678,0-10.607C142.578,151.667,137.829,151.667,134.9,154.595z"/>
			<path style="fill:#13829B;" d="M131.963,195.245l-32.746,32.745c-2.929,2.93-2.929,7.678,0,10.607
				c2.93,2.929,7.678,2.928,10.606,0l32.746-32.745c2.929-2.93,2.929-7.678,0-10.607
				C139.64,192.318,134.891,192.318,131.963,195.245z"/>
			<path style="fill:#13829B;" d="M316.892,161.701c-2.929-2.928-7.678-2.928-10.607,0l-48.555,48.555
				c-2.929,2.93-2.929,7.678,0,10.607c2.93,2.929,7.678,2.928,10.607,0l48.555-48.555
				C319.821,169.379,319.821,164.631,316.892,161.701z"/>
			<path style="fill:#13829B;" d="M314.885,190.816l-28.04,28.041c-2.929,2.929-2.929,7.678,0,10.606
				c2.929,2.928,7.678,2.929,10.607-0.001l28.04-28.041c2.929-2.929,2.929-7.678,0-10.607
				C322.562,187.887,317.813,187.886,314.885,190.816z"/>
			<path style="fill:#13829B;" d="M371.235,142.008v-0.548c0-9.649-7.85-17.5-17.5-17.5H229.487c-9.649,0-17.5,7.851-17.5,17.5
				v12.185c-9.953-6.122-22.648-6.251-32.81,0V141.46c0-9.649-7.851-17.5-17.5-17.5H37.43c-9.649,0-17.5,7.851-17.5,17.5v0.548
				c-26.56,7.543-26.585,45.354,0,52.904v54.792c0,9.649,7.851,17.5,17.5,17.5h109.248c17.92,0,32.5-14.579,32.5-32.5v-54.292
				c0-9.046,7.359-16.405,16.405-16.405c9.045,0,16.405,7.359,16.405,16.405v54.292c0,17.921,14.58,32.5,32.5,32.5h109.247
				c9.65,0,17.5-7.851,17.5-17.5v-54.792C397.797,187.37,397.819,149.557,371.235,142.008z M19.93,158.466v19.988
				C13.266,173.441,13.263,163.482,19.93,158.466z M164.178,234.704c0,9.649-7.851,17.5-17.5,17.5H37.43c-1.378,0-2.5-1.121-2.5-2.5
				c0-11.813,0-97.463,0-108.244c0-1.379,1.122-2.5,2.5-2.5h124.248c1.378,0,2.5,1.121,2.5,2.5V234.704z M356.235,249.704
				c0,1.379-1.121,2.5-2.5,2.5H244.487c-9.649,0-17.5-7.851-17.5-17.5V141.46c0-1.379,1.122-2.5,2.5-2.5h124.247
				c1.379,0,2.5,1.121,2.5,2.5V249.704z M371.235,178.454v-19.988C377.899,163.48,377.901,173.439,371.235,178.454z"/>
		</g>
	</g>
</g>
<g>
</g>
<g>
</g>
<g>
</g>
<g>
</g>
<g>
</g>
<g>
</g>
<g>
</g>
<g>
</g>
<g>
</g>
<g>
</g>
<g>
</g>
<g>
</g>
<g>
</g>
<g>
</g>
<g>
</g>
</svg>
